<?xml version="1.0" standalone="no"?>
<!DOCTYPE svg PUBLIC "-//W3C//DTD SVG 20010904//EN"
 "http://www.w3.org/TR/2001/REC-SVG-20010904/DTD/svg10.dtd">
<svg version="1.0" xmlns="http://www.w3.org/2000/svg"
 width="260.000000pt" height="260.000000pt" viewBox="0 0 260.000000 260.000000"
 preserveAspectRatio="xMidYMid meet">
<metadata>
Created by potrace 1.14, written by Peter Selinger 2001-2017
</metadata>
<g transform="translate(0.000000,260.000000) scale(0.100000,-0.100000)"
fill="#000000" stroke="none">
<path d="M0 1300 l0 -1300 1300 0 1300 0 0 1300 0 1300 -1300 0 -1300 0 0
-1300z m1595 796 c111 -30 204 -83 280 -160 57 -58 135 -172 135 -199 0 -5
-186 -97 -195 -97 -2 0 -15 24 -29 54 -81 166 -236 247 -444 233 -289 -19
-472 -215 -513 -549 -36 -297 64 -578 249 -697 106 -68 273 -97 403 -72 155
31 289 143 340 284 7 20 18 37 25 37 15 0 176 -60 187 -70 23 -21 -88 -196
-176 -276 -80 -72 -213 -137 -326 -160 -173 -34 -384 -5 -536 74 -84 44 -214
169 -264 254 -141 241 -161 654 -45 930 93 223 275 372 514 423 85 19 312 13
395 -9z"/>
</g>
</svg>
